# Blender v2.79 (sub 0) OBJ File: 'Half Sphere.blend'
# www.blender.org
mtllib Half Sphere with Normals In.mtl
o Sphere
v 0.195091 0.980785 0.000000
v 0.382684 0.923880 0.000000
v 0.555570 0.831470 0.000000
v 0.707107 0.707107 0.000000
v 0.831470 0.555570 0.000000
v 0.923880 0.382683 0.000000
v 0.980785 0.195090 0.000000
v 1.000000 0.000000 0.000000
v 0.980785 -0.195090 0.000000
v 0.923880 -0.382683 0.000000
v 0.831470 -0.555570 0.000000
v 0.707107 -0.707107 0.000000
v 0.555570 -0.831470 0.000000
v 0.382684 -0.923880 0.000000
v 0.195090 -0.980785 0.000000
v 0.191342 0.980785 0.038061
v 0.375331 0.923880 0.074658
v 0.544895 0.831470 0.108387
v 0.693520 0.707107 0.137950
v 0.815493 0.555570 0.162212
v 0.906128 0.382683 0.180240
v 0.961940 0.195090 0.191342
v 0.980785 0.000000 0.195091
v 0.961940 -0.195090 0.191342
v 0.906128 -0.382683 0.180240
v 0.815493 -0.555570 0.162212
v 0.693520 -0.707107 0.137950
v 0.544895 -0.831470 0.108387
v 0.375330 -0.923880 0.074658
v 0.191342 -0.980785 0.038061
v 0.180240 0.980785 0.074658
v 0.353554 0.923880 0.146447
v 0.513280 0.831470 0.212608
v 0.653282 0.707107 0.270598
v 0.768178 0.555570 0.318190
v 0.853554 0.382683 0.353554
v 0.906127 0.195090 0.375331
v 0.923880 0.000000 0.382684
v 0.906127 -0.195090 0.375331
v 0.853554 -0.382683 0.353554
v 0.768178 -0.555570 0.318190
v 0.653282 -0.707107 0.270598
v 0.513280 -0.831470 0.212608
v 0.353553 -0.923880 0.146447
v 0.180240 -0.980785 0.074658
v 0.162212 0.980785 0.108387
v 0.318190 0.923880 0.212608
v 0.461940 0.831470 0.308659
v 0.587938 0.707107 0.392848
v 0.691342 0.555570 0.461940
v 0.768178 0.382683 0.513280
v 0.815493 0.195090 0.544895
v 0.831470 0.000000 0.555571
v 0.815493 -0.195090 0.544895
v 0.768178 -0.382683 0.513280
v 0.691342 -0.555570 0.461940
v 0.587938 -0.707107 0.392848
v 0.461940 -0.831470 0.308659
v 0.318190 -0.923880 0.212608
v 0.162212 -0.980785 0.108387
v 0.137950 0.980785 0.137950
v 0.270598 0.923880 0.270599
v 0.392848 0.831470 0.392848
v 0.500000 0.707107 0.500000
v 0.587938 0.555570 0.587938
v 0.653282 0.382683 0.653282
v 0.693520 0.195090 0.693520
v 0.707107 0.000000 0.707107
v 0.693520 -0.195090 0.693520
v 0.653282 -0.382683 0.653282
v 0.587938 -0.555570 0.587938
v 0.500000 -0.707107 0.500000
v 0.392848 -0.831470 0.392848
v 0.270598 -0.923880 0.270598
v 0.137950 -0.980785 0.137950
v 0.108386 0.980785 0.162212
v 0.212608 0.923880 0.318190
v 0.308658 0.831470 0.461940
v 0.392848 0.707107 0.587938
v 0.461940 0.555570 0.691342
v 0.513280 0.382683 0.768178
v 0.544895 0.195090 0.815493
v 0.555570 0.000000 0.831470
v 0.544895 -0.195090 0.815493
v 0.513280 -0.382683 0.768178
v 0.461940 -0.555570 0.691342
v 0.392848 -0.707107 0.587938
v 0.308658 -0.831470 0.461940
v 0.212608 -0.923880 0.318190
v 0.108386 -0.980785 0.162212
v 0.000000 -1.000000 0.000000
v 0.074658 0.980785 0.180240
v 0.146447 0.923880 0.353554
v 0.212608 0.831470 0.513280
v 0.270598 0.707107 0.653282
v 0.318190 0.555570 0.768178
v 0.353553 0.382683 0.853554
v 0.375330 0.195090 0.906128
v 0.382683 0.000000 0.923880
v 0.375330 -0.195090 0.906128
v 0.353553 -0.382683 0.853554
v 0.318190 -0.555570 0.768178
v 0.270598 -0.707107 0.653282
v 0.212608 -0.831470 0.513280
v 0.146447 -0.923880 0.353554
v 0.074658 -0.980785 0.180240
v 0.038060 0.980785 0.191342
v 0.074658 0.923880 0.375331
v 0.108386 0.831470 0.544896
v 0.137950 0.707107 0.693520
v 0.162212 0.555570 0.815493
v 0.180240 0.382683 0.906128
v 0.191342 0.195090 0.961940
v 0.195090 0.000000 0.980786
v 0.191342 -0.195090 0.961940
v 0.180240 -0.382683 0.906128
v 0.162212 -0.555570 0.815493
v 0.137950 -0.707107 0.693520
v 0.108386 -0.831470 0.544895
v 0.074658 -0.923880 0.375331
v 0.038060 -0.980785 0.191342
v -0.000000 0.980785 0.195091
v 0.000000 0.923880 0.382684
v 0.000000 0.831470 0.555571
v -0.000000 0.707107 0.707107
v -0.000000 0.555570 0.831470
v 0.000000 0.382683 0.923880
v -0.000000 0.195090 0.980785
v -0.000000 0.000000 1.000000
v -0.000000 -0.195090 0.980785
v 0.000000 -0.382683 0.923880
v -0.000000 -0.555570 0.831470
v -0.000000 -0.707107 0.707107
v -0.000000 -0.831470 0.555570
v 0.000000 -0.923880 0.382684
v 0.000000 -0.980785 0.195091
v -0.038060 0.980785 0.191342
v -0.074658 0.923880 0.375331
v -0.108386 0.831470 0.544896
v -0.137950 0.707107 0.693520
v -0.162212 0.555570 0.815493
v -0.180240 0.382683 0.906128
v -0.191342 0.195090 0.961940
v -0.195090 0.000000 0.980786
v -0.191342 -0.195090 0.961940
v -0.180240 -0.382683 0.906128
v -0.162212 -0.555570 0.815493
v -0.137950 -0.707107 0.693520
v -0.108386 -0.831470 0.544895
v -0.074658 -0.923880 0.375331
v -0.038060 -0.980785 0.191342
v -0.074658 0.980785 0.180240
v -0.146447 0.923880 0.353554
v -0.212608 0.831470 0.513280
v -0.270598 0.707107 0.653282
v -0.318190 0.555570 0.768178
v -0.353553 0.382683 0.853554
v -0.375330 0.195090 0.906127
v -0.382684 0.000000 0.923880
v -0.375330 -0.195090 0.906127
v -0.353553 -0.382683 0.853554
v -0.318190 -0.555570 0.768178
v -0.270598 -0.707107 0.653282
v -0.212608 -0.831470 0.513280
v -0.146447 -0.923880 0.353554
v -0.074658 -0.980785 0.180240
v -0.108386 0.980785 0.162212
v -0.212608 0.923880 0.318190
v -0.308658 0.831470 0.461940
v -0.392847 0.707107 0.587938
v -0.461940 0.555570 0.691342
v -0.513280 0.382683 0.768178
v -0.544895 0.195090 0.815493
v -0.555570 0.000000 0.831470
v -0.544895 -0.195090 0.815493
v -0.513280 -0.382683 0.768178
v -0.461940 -0.555570 0.691342
v -0.392847 -0.707107 0.587938
v -0.308658 -0.831470 0.461940
v -0.212607 -0.923880 0.318190
v -0.108386 -0.980785 0.162212
v -0.000000 1.000000 0.000001
v -0.137950 0.980785 0.137950
v -0.270598 0.923880 0.270598
v -0.392848 0.831470 0.392848
v -0.500000 0.707107 0.500000
v -0.587938 0.555570 0.587938
v -0.653281 0.382683 0.653282
v -0.693520 0.195090 0.693520
v -0.707107 0.000000 0.707107
v -0.693520 -0.195090 0.693520
v -0.653281 -0.382683 0.653282
v -0.587938 -0.555570 0.587938
v -0.500000 -0.707107 0.500000
v -0.392847 -0.831470 0.392848
v -0.270598 -0.923880 0.270598
v -0.137950 -0.980785 0.137950
v -0.162212 0.980785 0.108387
v -0.318190 0.923880 0.212608
v -0.461940 0.831470 0.308659
v -0.587938 0.707107 0.392848
v -0.691342 0.555570 0.461940
v -0.768178 0.382683 0.513280
v -0.815493 0.195090 0.544895
v -0.831470 0.000000 0.555570
v -0.815493 -0.195090 0.544895
v -0.768178 -0.382683 0.513280
v -0.691342 -0.555570 0.461940
v -0.587938 -0.707107 0.392848
v -0.461940 -0.831470 0.308658
v -0.318190 -0.923880 0.212608
v -0.162212 -0.980785 0.108387
v -0.180240 0.980785 0.074658
v -0.353553 0.923880 0.146447
v -0.513280 0.831470 0.212608
v -0.653281 0.707107 0.270598
v -0.768177 0.555570 0.318190
v -0.853553 0.382683 0.353554
v -0.906127 0.195090 0.375330
v -0.923880 0.000000 0.382684
v -0.906127 -0.195090 0.375330
v -0.853553 -0.382683 0.353554
v -0.768177 -0.555570 0.318190
v -0.653281 -0.707107 0.270598
v -0.513280 -0.831470 0.212608
v -0.353553 -0.923880 0.146447
v -0.180240 -0.980785 0.074658
v -0.191342 0.980785 0.038061
v -0.375330 0.923880 0.074658
v -0.544895 0.831470 0.108387
v -0.693520 0.707107 0.137950
v -0.815493 0.555570 0.162212
v -0.906127 0.382683 0.180240
v -0.961939 0.195090 0.191342
v -0.980785 0.000000 0.195090
v -0.961939 -0.195090 0.191342
v -0.906127 -0.382683 0.180240
v -0.815493 -0.555570 0.162212
v -0.693520 -0.707107 0.137950
v -0.544895 -0.831470 0.108387
v -0.375330 -0.923880 0.074658
v -0.191342 -0.980785 0.038061
v -0.195090 0.980785 0.000000
v -0.382683 0.923880 0.000000
v -0.555570 0.831470 0.000000
v -0.707107 0.707107 0.000000
v -0.831469 0.555570 0.000000
v -0.923879 0.382683 0.000000
v -0.980785 0.195090 0.000000
v -1.000000 0.000000 0.000000
v -0.980785 -0.195090 0.000000
v -0.923879 -0.382683 0.000000
v -0.831469 -0.555570 0.000000
v -0.707107 -0.707107 0.000000
v -0.555570 -0.831470 0.000000
v -0.382683 -0.923880 0.000000
v -0.195090 -0.980785 0.000000
vn -0.9904 -0.0976 -0.0975
vn -0.0980 -0.9951 -0.0097
vn -0.0980 0.9951 -0.0097
vn -0.9904 0.0976 -0.0975
vn -0.2902 -0.9565 -0.0286
vn -0.9527 0.2890 -0.0938
vn -0.4709 -0.8810 -0.0464
vn -0.8786 0.4696 -0.0865
vn -0.6332 -0.7715 -0.0624
vn -0.7708 0.6326 -0.0759
vn -0.7708 -0.6326 -0.0759
vn -0.6332 0.7715 -0.0624
vn -0.8786 -0.4696 -0.0865
vn -0.4709 0.8810 -0.0464
vn -0.9527 -0.2890 -0.0938
vn -0.2902 0.9565 -0.0286
vn -0.7412 0.6326 -0.2248
vn -0.7412 -0.6326 -0.2248
vn -0.6088 0.7715 -0.1847
vn -0.8448 -0.4696 -0.2563
vn -0.4528 0.8810 -0.1374
vn -0.9161 -0.2890 -0.2779
vn -0.2790 0.9565 -0.0846
vn -0.9524 -0.0976 -0.2889
vn -0.0942 -0.9951 -0.0286
vn -0.0942 0.9951 -0.0286
vn -0.9524 0.0976 -0.2889
vn -0.2790 -0.9565 -0.0846
vn -0.9161 0.2890 -0.2779
vn -0.4528 -0.8810 -0.1374
vn -0.8448 0.4696 -0.2563
vn -0.6088 -0.7715 -0.1847
vn -0.0869 -0.9951 -0.0464
vn -0.0869 0.9951 -0.0464
vn -0.8777 0.0976 -0.4691
vn -0.2571 -0.9565 -0.1374
vn -0.8443 0.2890 -0.4513
vn -0.4173 -0.8810 -0.2231
vn -0.7786 0.4696 -0.4162
vn -0.5611 -0.7715 -0.2999
vn -0.6831 0.6326 -0.3651
vn -0.6831 -0.6326 -0.3651
vn -0.5611 0.7715 -0.2999
vn -0.7786 -0.4696 -0.4162
vn -0.4173 0.8810 -0.2231
vn -0.8443 -0.2890 -0.4513
vn -0.2571 0.9565 -0.1374
vn -0.8777 -0.0976 -0.4691
vn -0.5987 -0.6326 -0.4913
vn -0.4918 0.7715 -0.4036
vn -0.6825 -0.4696 -0.5601
vn -0.3658 0.8810 -0.3002
vn -0.7400 -0.2890 -0.6073
vn -0.2254 0.9565 -0.1850
vn -0.7693 -0.0976 -0.6314
vn -0.0761 -0.9951 -0.0625
vn -0.0761 0.9951 -0.0625
vn -0.7693 0.0976 -0.6314
vn -0.2254 -0.9565 -0.1850
vn -0.7400 0.2890 -0.6073
vn -0.3658 -0.8810 -0.3002
vn -0.6825 0.4696 -0.5601
vn -0.4918 -0.7715 -0.4036
vn -0.5987 0.6326 -0.4913
vn -0.6314 0.0976 -0.7693
vn -0.1850 -0.9565 -0.2254
vn -0.6073 0.2890 -0.7400
vn -0.3002 -0.8810 -0.3658
vn -0.5601 0.4696 -0.6825
vn -0.4036 -0.7715 -0.4918
vn -0.4913 0.6326 -0.5987
vn -0.4913 -0.6326 -0.5987
vn -0.4036 0.7715 -0.4918
vn -0.5601 -0.4696 -0.6825
vn -0.3002 0.8810 -0.3658
vn -0.6073 -0.2890 -0.7400
vn -0.1850 0.9565 -0.2254
vn -0.6314 -0.0976 -0.7693
vn -0.0625 -0.9951 -0.0761
vn -0.0625 0.9951 -0.0761
vn -0.2999 0.7715 -0.5611
vn -0.4162 -0.4696 -0.7786
vn -0.2230 0.8810 -0.4173
vn -0.4513 -0.2890 -0.8443
vn -0.1374 0.9565 -0.2571
vn -0.4691 -0.0976 -0.8777
vn -0.0464 -0.9951 -0.0869
vn -0.0464 0.9951 -0.0869
vn -0.4691 0.0976 -0.8777
vn -0.1374 -0.9565 -0.2571
vn -0.4513 0.2890 -0.8443
vn -0.2230 -0.8810 -0.4173
vn -0.4162 0.4696 -0.7786
vn -0.2999 -0.7715 -0.5611
vn -0.3651 0.6326 -0.6831
vn -0.3651 -0.6326 -0.6831
vn -0.2779 0.2890 -0.9161
vn -0.1374 -0.8810 -0.4528
vn -0.2563 0.4696 -0.8448
vn -0.1847 -0.7715 -0.6088
vn -0.2248 0.6326 -0.7412
vn -0.2248 -0.6326 -0.7412
vn -0.1847 0.7715 -0.6088
vn -0.2563 -0.4696 -0.8448
vn -0.1374 0.8810 -0.4528
vn -0.2779 -0.2890 -0.9161
vn -0.0846 0.9565 -0.2790
vn -0.2889 -0.0976 -0.9524
vn -0.0286 -0.9951 -0.0942
vn -0.0286 0.9951 -0.0942
vn -0.2889 0.0976 -0.9524
vn -0.0846 -0.9565 -0.2790
vn -0.0464 0.8810 -0.4709
vn -0.0938 -0.2890 -0.9527
vn -0.0286 0.9565 -0.2902
vn -0.0975 -0.0976 -0.9904
vn -0.0097 -0.9951 -0.0980
vn -0.0097 0.9951 -0.0980
vn -0.0975 0.0976 -0.9904
vn -0.0286 -0.9565 -0.2902
vn -0.0938 0.2890 -0.9527
vn -0.0464 -0.8810 -0.4709
vn -0.0865 0.4696 -0.8786
vn -0.0624 -0.7715 -0.6332
vn -0.0759 0.6326 -0.7708
vn -0.0759 -0.6326 -0.7708
vn -0.0624 0.7715 -0.6332
vn -0.0865 -0.4696 -0.8786
vn 0.0464 -0.8810 -0.4709
vn 0.0865 0.4696 -0.8786
vn 0.0624 -0.7715 -0.6332
vn 0.0759 0.6326 -0.7708
vn 0.0759 -0.6326 -0.7708
vn 0.0624 0.7715 -0.6332
vn 0.0865 -0.4696 -0.8786
vn 0.0464 0.8810 -0.4709
vn 0.0938 -0.2890 -0.9527
vn 0.0286 0.9565 -0.2902
vn 0.0976 -0.0976 -0.9904
vn 0.0097 -0.9951 -0.0980
vn 0.0097 0.9951 -0.0980
vn 0.0976 0.0976 -0.9904
vn 0.0286 -0.9565 -0.2902
vn 0.0938 0.2890 -0.9527
vn 0.2779 -0.2890 -0.9161
vn 0.0846 0.9565 -0.2790
vn 0.2889 -0.0976 -0.9524
vn 0.0286 -0.9951 -0.0942
vn 0.0286 0.9951 -0.0942
vn 0.2889 0.0976 -0.9524
vn 0.0846 -0.9565 -0.2790
vn 0.2779 0.2890 -0.9161
vn 0.1374 -0.8810 -0.4528
vn 0.2563 0.4696 -0.8448
vn 0.1847 -0.7715 -0.6088
vn 0.2248 0.6326 -0.7412
vn 0.2248 -0.6326 -0.7412
vn 0.1847 0.7715 -0.6088
vn 0.2563 -0.4696 -0.8448
vn 0.1374 0.8810 -0.4528
vn 0.4162 0.4696 -0.7786
vn 0.2999 -0.7715 -0.5611
vn 0.3651 0.6326 -0.6831
vn 0.3651 -0.6326 -0.6831
vn 0.2999 0.7715 -0.5611
vn 0.4162 -0.4696 -0.7786
vn 0.2230 0.8810 -0.4173
vn 0.4513 -0.2890 -0.8443
vn 0.1374 0.9565 -0.2571
vn 0.4691 -0.0976 -0.8777
vn 0.0464 -0.9951 -0.0869
vn 0.0464 0.9951 -0.0869
vn 0.4691 0.0976 -0.8777
vn 0.1374 -0.9565 -0.2571
vn 0.4513 0.2890 -0.8443
vn 0.2230 -0.8810 -0.4173
vn 0.1850 0.9565 -0.2254
vn 0.6314 -0.0976 -0.7693
vn 0.0625 -0.9951 -0.0761
vn 0.0625 0.9951 -0.0761
vn 0.6314 0.0976 -0.7693
vn 0.1850 -0.9565 -0.2254
vn 0.6073 0.2890 -0.7400
vn 0.3002 -0.8810 -0.3658
vn 0.5601 0.4696 -0.6825
vn 0.4036 -0.7715 -0.4918
vn 0.4913 0.6326 -0.5987
vn 0.4913 -0.6326 -0.5987
vn 0.4036 0.7715 -0.4918
vn 0.5601 -0.4696 -0.6825
vn 0.3002 0.8810 -0.3658
vn 0.6073 -0.2890 -0.7400
vn 0.4918 -0.7715 -0.4036
vn 0.5987 0.6326 -0.4913
vn 0.5987 -0.6326 -0.4913
vn 0.4918 0.7715 -0.4036
vn 0.6825 -0.4696 -0.5601
vn 0.3658 0.8810 -0.3002
vn 0.7400 -0.2890 -0.6073
vn 0.2254 0.9565 -0.1850
vn 0.7693 -0.0976 -0.6314
vn 0.0761 -0.9951 -0.0625
vn 0.0761 0.9951 -0.0625
vn 0.7693 0.0976 -0.6314
vn 0.2254 -0.9565 -0.1850
vn 0.7400 0.2890 -0.6073
vn 0.3658 -0.8810 -0.3002
vn 0.6825 0.4696 -0.5601
vn 0.8777 -0.0976 -0.4691
vn 0.0869 -0.9951 -0.0464
vn 0.0869 0.9951 -0.0464
vn 0.8777 0.0976 -0.4691
vn 0.2571 -0.9565 -0.1374
vn 0.8443 0.2890 -0.4513
vn 0.4173 -0.8810 -0.2230
vn 0.7786 0.4696 -0.4162
vn 0.5611 -0.7715 -0.2999
vn 0.6831 0.6326 -0.3651
vn 0.6831 -0.6326 -0.3651
vn 0.5611 0.7715 -0.2999
vn 0.7786 -0.4696 -0.4162
vn 0.4173 0.8810 -0.2231
vn 0.8443 -0.2890 -0.4513
vn 0.2571 0.9565 -0.1374
vn 0.7412 0.6326 -0.2248
vn 0.7412 -0.6326 -0.2248
vn 0.6088 0.7715 -0.1847
vn 0.8448 -0.4696 -0.2563
vn 0.4528 0.8810 -0.1374
vn 0.9161 -0.2890 -0.2779
vn 0.2790 0.9565 -0.0846
vn 0.9524 -0.0976 -0.2889
vn 0.0942 -0.9951 -0.0286
vn 0.0942 0.9951 -0.0286
vn 0.9524 0.0976 -0.2889
vn 0.2790 -0.9565 -0.0846
vn 0.9161 0.2890 -0.2779
vn 0.4528 -0.8810 -0.1374
vn 0.8448 0.4696 -0.2563
vn 0.6088 -0.7715 -0.1847
vn 0.0980 0.9951 -0.0097
vn 0.9904 0.0976 -0.0975
vn 0.2902 -0.9565 -0.0286
vn 0.9527 0.2890 -0.0938
vn 0.4709 -0.8810 -0.0464
vn 0.8786 0.4696 -0.0865
vn 0.6332 -0.7715 -0.0624
vn 0.7708 0.6326 -0.0759
vn 0.7708 -0.6326 -0.0759
vn 0.6332 0.7715 -0.0624
vn 0.8786 -0.4696 -0.0865
vn 0.4709 0.8810 -0.0464
vn 0.9527 -0.2890 -0.0938
vn 0.2902 0.9565 -0.0286
vn 0.9904 -0.0976 -0.0975
vn 0.0980 -0.9951 -0.0097
usemtl None
s off
f 8//1 23//1 22//1 7//1
f 1//2 16//2 182//2
f 91//3 30//3 15//3
f 9//4 24//4 23//4 8//4
f 2//5 17//5 16//5 1//5
f 10//6 25//6 24//6 9//6
f 3//7 18//7 17//7 2//7
f 11//8 26//8 25//8 10//8
f 4//9 19//9 18//9 3//9
f 12//10 27//10 26//10 11//10
f 5//11 20//11 19//11 4//11
f 13//12 28//12 27//12 12//12
f 6//13 21//13 20//13 5//13
f 14//14 29//14 28//14 13//14
f 7//15 22//15 21//15 6//15
f 15//16 30//16 29//16 14//16
f 27//17 42//17 41//17 26//17
f 20//18 35//18 34//18 19//18
f 28//19 43//19 42//19 27//19
f 21//20 36//20 35//20 20//20
f 29//21 44//21 43//21 28//21
f 22//22 37//22 36//22 21//22
f 30//23 45//23 44//23 29//23
f 23//24 38//24 37//24 22//24
f 16//25 31//25 182//25
f 91//26 45//26 30//26
f 24//27 39//27 38//27 23//27
f 17//28 32//28 31//28 16//28
f 25//29 40//29 39//29 24//29
f 18//30 33//30 32//30 17//30
f 26//31 41//31 40//31 25//31
f 19//32 34//32 33//32 18//32
f 31//33 46//33 182//33
f 91//34 60//34 45//34
f 39//35 54//35 53//35 38//35
f 32//36 47//36 46//36 31//36
f 40//37 55//37 54//37 39//37
f 33//38 48//38 47//38 32//38
f 41//39 56//39 55//39 40//39
f 34//40 49//40 48//40 33//40
f 42//41 57//41 56//41 41//41
f 35//42 50//42 49//42 34//42
f 43//43 58//43 57//43 42//43
f 36//44 51//44 50//44 35//44
f 44//45 59//45 58//45 43//45
f 37//46 52//46 51//46 36//46
f 45//47 60//47 59//47 44//47
f 38//48 53//48 52//48 37//48
f 50//49 65//49 64//49 49//49
f 58//50 73//50 72//50 57//50
f 51//51 66//51 65//51 50//51
f 59//52 74//52 73//52 58//52
f 52//53 67//53 66//53 51//53
f 60//54 75//54 74//54 59//54
f 53//55 68//55 67//55 52//55
f 46//56 61//56 182//56
f 91//57 75//57 60//57
f 54//58 69//58 68//58 53//58
f 47//59 62//59 61//59 46//59
f 55//60 70//60 69//60 54//60
f 48//61 63//61 62//61 47//61
f 56//62 71//62 70//62 55//62
f 49//63 64//63 63//63 48//63
f 57//64 72//64 71//64 56//64
f 69//65 84//65 83//65 68//65
f 62//66 77//66 76//66 61//66
f 70//67 85//67 84//67 69//67
f 63//68 78//68 77//68 62//68
f 71//69 86//69 85//69 70//69
f 64//70 79//70 78//70 63//70
f 72//71 87//71 86//71 71//71
f 65//72 80//72 79//72 64//72
f 73//73 88//73 87//73 72//73
f 66//74 81//74 80//74 65//74
f 74//75 89//75 88//75 73//75
f 67//76 82//76 81//76 66//76
f 75//77 90//77 89//77 74//77
f 68//78 83//78 82//78 67//78
f 61//79 76//79 182//79
f 91//80 90//80 75//80
f 88//81 104//81 103//81 87//81
f 81//82 97//82 96//82 80//82
f 89//83 105//83 104//83 88//83
f 82//84 98//84 97//84 81//84
f 90//85 106//85 105//85 89//85
f 83//86 99//86 98//86 82//86
f 76//87 92//87 182//87
f 91//88 106//88 90//88
f 84//89 100//89 99//89 83//89
f 77//90 93//90 92//90 76//90
f 85//91 101//91 100//91 84//91
f 78//92 94//92 93//92 77//92
f 86//93 102//93 101//93 85//93
f 79//94 95//94 94//94 78//94
f 87//95 103//95 102//95 86//95
f 80//96 96//96 95//96 79//96
f 101//97 116//97 115//97 100//97
f 94//98 109//98 108//98 93//98
f 102//99 117//99 116//99 101//99
f 95//100 110//100 109//100 94//100
f 103//101 118//101 117//101 102//101
f 96//102 111//102 110//102 95//102
f 104//103 119//103 118//103 103//103
f 97//104 112//104 111//104 96//104
f 105//105 120//105 119//105 104//105
f 98//106 113//106 112//106 97//106
f 106//107 121//107 120//107 105//107
f 99//108 114//108 113//108 98//108
f 92//109 107//109 182//109
f 91//110 121//110 106//110
f 100//111 115//111 114//111 99//111
f 93//112 108//112 107//112 92//112
f 120//113 135//113 134//113 119//113
f 113//114 128//114 127//114 112//114
f 121//115 136//115 135//115 120//115
f 114//116 129//116 128//116 113//116
f 107//117 122//117 182//117
f 91//118 136//118 121//118
f 115//119 130//119 129//119 114//119
f 108//120 123//120 122//120 107//120
f 116//121 131//121 130//121 115//121
f 109//122 124//122 123//122 108//122
f 117//123 132//123 131//123 116//123
f 110//124 125//124 124//124 109//124
f 118//125 133//125 132//125 117//125
f 111//126 126//126 125//126 110//126
f 119//127 134//127 133//127 118//127
f 112//128 127//128 126//128 111//128
f 124//129 139//129 138//129 123//129
f 132//130 147//130 146//130 131//130
f 125//131 140//131 139//131 124//131
f 133//132 148//132 147//132 132//132
f 126//133 141//133 140//133 125//133
f 134//134 149//134 148//134 133//134
f 127//135 142//135 141//135 126//135
f 135//136 150//136 149//136 134//136
f 128//137 143//137 142//137 127//137
f 136//138 151//138 150//138 135//138
f 129//139 144//139 143//139 128//139
f 122//140 137//140 182//140
f 91//141 151//141 136//141
f 130//142 145//142 144//142 129//142
f 123//143 138//143 137//143 122//143
f 131//144 146//144 145//144 130//144
f 143//145 158//145 157//145 142//145
f 151//146 166//146 165//146 150//146
f 144//147 159//147 158//147 143//147
f 137//148 152//148 182//148
f 91//149 166//149 151//149
f 145//150 160//150 159//150 144//150
f 138//151 153//151 152//151 137//151
f 146//152 161//152 160//152 145//152
f 139//153 154//153 153//153 138//153
f 147//154 162//154 161//154 146//154
f 140//155 155//155 154//155 139//155
f 148//156 163//156 162//156 147//156
f 141//157 156//157 155//157 140//157
f 149//158 164//158 163//158 148//158
f 142//159 157//159 156//159 141//159
f 150//160 165//160 164//160 149//160
f 162//161 177//161 176//161 161//161
f 155//162 170//162 169//162 154//162
f 163//163 178//163 177//163 162//163
f 156//164 171//164 170//164 155//164
f 164//165 179//165 178//165 163//165
f 157//166 172//166 171//166 156//166
f 165//167 180//167 179//167 164//167
f 158//168 173//168 172//168 157//168
f 166//169 181//169 180//169 165//169
f 159//170 174//170 173//170 158//170
f 152//171 167//171 182//171
f 91//172 181//172 166//172
f 160//173 175//173 174//173 159//173
f 153//174 168//174 167//174 152//174
f 161//175 176//175 175//175 160//175
f 154//176 169//176 168//176 153//176
f 181//177 197//177 196//177 180//177
f 174//178 190//178 189//178 173//178
f 167//179 183//179 182//179
f 91//180 197//180 181//180
f 175//181 191//181 190//181 174//181
f 168//182 184//182 183//182 167//182
f 176//183 192//183 191//183 175//183
f 169//184 185//184 184//184 168//184
f 177//185 193//185 192//185 176//185
f 170//186 186//186 185//186 169//186
f 178//187 194//187 193//187 177//187
f 171//188 187//188 186//188 170//188
f 179//189 195//189 194//189 178//189
f 172//190 188//190 187//190 171//190
f 180//191 196//191 195//191 179//191
f 173//192 189//192 188//192 172//192
f 186//193 201//193 200//193 185//193
f 194//194 209//194 208//194 193//194
f 187//195 202//195 201//195 186//195
f 195//196 210//196 209//196 194//196
f 188//197 203//197 202//197 187//197
f 196//198 211//198 210//198 195//198
f 189//199 204//199 203//199 188//199
f 197//200 212//200 211//200 196//200
f 190//201 205//201 204//201 189//201
f 183//202 198//202 182//202
f 91//203 212//203 197//203
f 191//204 206//204 205//204 190//204
f 184//205 199//205 198//205 183//205
f 192//206 207//206 206//206 191//206
f 185//207 200//207 199//207 184//207
f 193//208 208//208 207//208 192//208
f 205//209 220//209 219//209 204//209
f 198//210 213//210 182//210
f 91//211 227//211 212//211
f 206//212 221//212 220//212 205//212
f 199//213 214//213 213//213 198//213
f 207//214 222//214 221//214 206//214
f 200//215 215//215 214//215 199//215
f 208//216 223//216 222//216 207//216
f 201//217 216//217 215//217 200//217
f 209//218 224//218 223//218 208//218
f 202//219 217//219 216//219 201//219
f 210//220 225//220 224//220 209//220
f 203//221 218//221 217//221 202//221
f 211//222 226//222 225//222 210//222
f 204//223 219//223 218//223 203//223
f 212//224 227//224 226//224 211//224
f 224//225 239//225 238//225 223//225
f 217//226 232//226 231//226 216//226
f 225//227 240//227 239//227 224//227
f 218//228 233//228 232//228 217//228
f 226//229 241//229 240//229 225//229
f 219//230 234//230 233//230 218//230
f 227//231 242//231 241//231 226//231
f 220//232 235//232 234//232 219//232
f 213//233 228//233 182//233
f 91//234 242//234 227//234
f 221//235 236//235 235//235 220//235
f 214//236 229//236 228//236 213//236
f 222//237 237//237 236//237 221//237
f 215//238 230//238 229//238 214//238
f 223//239 238//239 237//239 222//239
f 216//240 231//240 230//240 215//240
f 91//241 257//241 242//241
f 236//242 251//242 250//242 235//242
f 229//243 244//243 243//243 228//243
f 237//244 252//244 251//244 236//244
f 230//245 245//245 244//245 229//245
f 238//246 253//246 252//246 237//246
f 231//247 246//247 245//247 230//247
f 239//248 254//248 253//248 238//248
f 232//249 247//249 246//249 231//249
f 240//250 255//250 254//250 239//250
f 233//251 248//251 247//251 232//251
f 241//252 256//252 255//252 240//252
f 234//253 249//253 248//253 233//253
f 242//254 257//254 256//254 241//254
f 235//255 250//255 249//255 234//255
f 228//256 243//256 182//256
